<?xml version="1.0" encoding="UTF-8"?><svg id="a" xmlns="http://www.w3.org/2000/svg" viewBox="0 0 90.709 90.709"><path d="M20.453,17.527c.066,0,.131,0,.197,0,.232,0,.464,0,.696,0,.188,0,.377,0,.565,0,1.044-.002,2.086-.002,3.129.068.037.002.074.005.113.007.21.014.419.03.628.048.03.003.06.005.091.008,2.364.204,4.746.622,6.915,1.618.074.034.148.067.222.1,1.475.663,2.896,1.742,3.87,3.042.049.065.098.13.148.194,1.701,2.241,2.295,5.104,2.12,12.743-.234,1.689-.577,3.357-.915,5.028-.078.385-.155.769-.232,1.154-.009.045-.018.09-.027.134-.032.162-.064.324-.097.487-.021.105-.042.21-.063.315-.006.03-.012.06-.018.092-.005.027-.011.054-.016.082-.005.023-.009.047-.014.071q-.014.057-.044.118c.43.074.838-.064,1.242-.202.02-.007.04-.013.06-.02.393-.133.776-.285,1.155-.454.018-.008.037-.016.056-.025,1.219-.54,2.433-1.112,3.577-1.799.079-.047.158-.094.238-.141,1.552-.917,3.046-1.981,4.369-3.208.039-.036.078-.071.118-.106.196-.174.383-.355.567-.54.048-.048.097-.097.145-.145.167-.167.328-.336.481-.516.043-.047.087-.095.131-.142.138-.153.265-.313.391-.476.059-.076.118-.15.179-.224.224-.273.426-.556.62-.85q.022-.033.044-.067c.236-.357.462-.717.662-1.096.016-.03.032-.06.048-.091.711-1.353,1.142-2.786,1.334-4.3.004-.032.008-.063.012-.096.308-2.523-.32-5.15-2.029-8.942-.103-.179-.199-.361-.288-.548-.011-.023-.022-.046-.033-.069-.101-.217-.193-.447-.191-.689,0-.027,0-.054,0-.082.016-.097.032-.131.104-.198.093-.013.176-.018.27-.018.027,0,.055,0,.083-.001.091-.001.182-.002.273-.003.064,0,.128-.002.193-.003.166-.002.332-.004.498-.005.09,0,.18-.001.27-.002.369-.003.738-.004,1.107-.005.162,0,.324,0,.486-.001.317,0,.635-.001.952-.002.376,0,.752-.001,1.128-.002.912-.002,1.823-.004,2.735-.005.271,0,.542,0,.813-.001,1.453-.003,2.905-.005,4.358-.008.363,0,.725-.001,1.088-.002q.059,0,.119,0c1.175-.002,2.35-.004,3.525-.008.11,0,.221,0,.331,0,.027,0,.054,0,.081,0,.644-.002,1.287-.003,1.931-.004.112,0,.223,0,.335,0q.033,0,.066,0c.346,0,.692-.002,1.038-.003.338-.001.675-.002,1.013-.002.177,0,.353,0,.53-.001.157,0,.314-.001.472,0,.056,0,.112,0,.169,0,.076,0,.151,0,.227,0,.022,0,.044,0,.066-.001.114.002.156.012.237.094.151.244.222.507.29.784.008.032.016.065.024.098.086.349.165.7.24,1.052.007.034.014.067.022.102.192.897.345,1.795.45,2.706.003.026.006.053.009.08.095.835.131,1.666.129,2.506,0,.075,0,.15,0,.226-.001.704-.008,1.405-.094,2.105-.008.067-.016.133-.024.2-.251,2.123-.865,4.158-1.826,6.066-.015.03-.03.059-.045.09-.55,1.098-1.256,2.143-2.057,3.074-.072.084-.141.17-.21.256-.163.2-.341.386-.518.574-.054.058-.107.116-.161.174-.25.273-.513.529-.785.78-.057.053-.115.107-.172.16-.175.164-.354.322-.541.472-.078.063-.155.128-.231.194-.212.181-.43.354-.653.521-.021.016-.042.031-.063.047-2.058,1.542-4.303,2.637-6.666,3.617-1.129.468-2.245.955-3.342,1.495.221.234.489.327.795.411.033.009.066.018.1.027.619.164,1.252.268,1.882.374q.059.01.119.02c.195.033.39.065.586.097.676.112,1.35.241,2.011.425.02.006.041.011.062.017,2.578.714,5.089,1.76,7.865,3.879.018.015.036.03.054.045.457.381.912.787,1.3,1.239.067.076.135.15.204.224.161.177.31.363.455.553.029.038.059.076.088.115,1.832,2.362,2.8,5.437,2.818,8.55,0,.047,0,.094,0,.141,0,.15,0,.3,0,.45,0,.026,0,.051,0,.077,0,.737-.005,1.47-.092,2.203-.008.071-.016.142-.024.213-.292,2.679-.96,5.369-2.318,8.759-.046.003-.092.004-.139.004-.03,0-.06,0-.092,0q-.05,0-.102,0c-.036,0-.071,0-.108,0-.1,0-.199,0-.299,0-.108,0-.216,0-.324,0-.215,0-.429.001-.644.001-.178,0-.357,0-.535.001-.026,0-.051,0-.078,0-.052,0-.105,0-.157,0-1.889.005-3.778.007-5.666.009-.285,0-.57,0-.855,0-.031,0-.063,0-.095,0-1.021.001-2.041.003-3.062.006-1.049.003-2.098.005-3.147.005-.148,0-.297,0-.445,0-.029,0-.058,0-.088,0-.469,0-.938.002-1.408.003-.472.002-.944.002-1.416.002-.28,0-.56,0-.841.002-.187.001-.375.001-.562,0-.107,0-.213,0-.32,0-.516.005-.873-.042-1.297-.346-.056-.036-.112-.071-.168-.107-.045-.031-.089-.062-.134-.093-.024-.017-.048-.034-.073-.051-.641-.45-1.265-.964-1.775-1.561-.026-.029-.051-.058-.078-.088-.382-.437-.706-.915-.997-1.416q-.021-.036-.042-.073c-1.08-1.861-1.522-4.117-1.53-6.252,0-.043,0-.085,0-.128,0-.136,0-.271,0-.407,0-.023,0-.046,0-.07,0-.774.019-1.542.1-2.313.003-.026.005-.052.008-.079.063-.612.143-1.222.236-1.831.003-.022.007-.045.01-.068.026-.17.054-.34.084-.51q.008-.047.017-.096c.128-.728.309-1.441.493-2.157.041-.161.082-.323.123-.484.058-.227.115-.453.173-.679q.536-2.042.977-4.105c.006-.034.013-.069.019-.104.03-.173.047-.336.04-.512-2.294-.044-4.483.798-6.5,1.837-.085.043-.17.086-.255.128-1.541.779-2.964,1.784-4.238,2.948-.029.027-.059.053-.089.081-.199.181-.392.367-.582.557q-.032.032-.065.065c-.122.122-.238.248-.351.378-.064.074-.131.147-.198.219-.151.166-.293.337-.434.512-.028.035-.057.07-.085.104-.71.872-1.316,1.824-1.849,2.813-.014.026-.028.052-.043.079-1.234,2.28-1.922,4.85-2.352,8.917-.001.021-.003.042-.004.064-.028.473-.034.945-.034,1.419,0,.085,0,.17-.001.254-.004.513.013,1.011.101,1.518.01.064.02.129.03.193.004.025.008.05.012.075q.107.679-.065.969c-.187.251-.44.33-.742.378-.998.125-2.021.139-3.025.143-.065,0-.129,0-.194,0-.308.001-.616.002-.925.002-.075,0-.15,0-.224,0-2.198.004-4.392-.063-6.589-.144-.198-.007-.395-.014-.593-.022-.03-.001-.06-.002-.092-.003-.948-.034-1.897-.033-2.845-.033-.153,0-.306,0-.458,0-.922-.002-1.841,0-2.762.05q-.933.051-1.326-.251c-.198-.195-.309-.336-.314-.622,0-.035.001-.07.002-.106,0-.038,0-.076,0-.115,0-.105,0-.211,0-.316,0-.115,0-.23,0-.345,0-.203,0-.405,0-.608,0-.303,0-.606,0-.91-.001-.517-.001-1.033,0-1.55,0-.524,0-1.047,0-1.571q0-.05,0-.1c0-.135,0-.269,0-.404-.001-1.33-.001-2.659,0-3.989,0-1.134,0-2.268,0-3.402,0-.076,0-.152,0-.228,0-.305,0-.61,0-.915,0-.852,0-1.705,0-2.557,0-.039,0-.078,0-.118,0-1.237,0-2.475,0-3.712,0-.04,0-.08,0-.122,0-.652,0-1.304,0-1.956,0-2.115,0-4.23,0-7.757,0-.652,0-1.303,0-1.955q0-.06,0-.122c0-1.236,0-2.472,0-3.708q0-.058,0-.118c0-.851,0-1.703,0-2.554,0-.305,0-.609,0-.914,0-.076,0-.152,0-.227,0-1.209,0-2.418,0-3.626,0-1.251,0-2.502,0-3.753,0-.134,0-.268,0-.403,0-.033,0-.066,0-.1,0-.522,0-1.045,0-1.567,0-.513,0-1.026,0-1.539,0-.301,0-.602,0-.904,0-.2,0-.4,0-.599,0-.113,0-.227,0-.34,0-.122,0-.243.001-.365,0-.035-.001-.07-.002-.106.003-.181.021-.28.152-.41q.032-.027.065-.055c.062-.053.106-.107.153-.173.074-.087.092-.094.212-.123.046-.002.091-.003.137-.003.025,0,.051-.002.077-.003.084-.003.168-.004.252-.005.06-.002.12-.004.181-.005.129-.004.257-.007.386-.01.199-.005.398-.012.597-.021.033-.001.066-.003.1-.004.067-.003.135-.006.202-.008.172-.007.344-.013.516-.02.069-.003.139-.005.208-.008.034-.001.069-.003.105-.004.141-.005.281-.011.421-.016.139-.005.278-.011.418-.016.065-.002.129-.005.194-.007.221-.008.442-.016.663-.024.038-.001.077-.003.116-.004.602-.021,1.204-.032,1.807-.032Z" fill="#fff"/></svg>